<?xml version="1.0" standalone="no"?>
<!DOCTYPE svg PUBLIC "-//W3C//DTD SVG 1.1//EN" "http://www.w3.org/Graphics/SVG/1.1/DTD/svg11.dtd" >
<svg xmlns="http://www.w3.org/2000/svg">
<metadata></metadata>
<defs>
<font id="panefresco_750wtitalic" horiz-adv-x="1085" >
<font-face units-per-em="2048" ascent="1536" descent="-512" />
<missing-glyph horiz-adv-x="481" />
<glyph horiz-adv-x="0" />
<glyph unicode="&#xd;" horiz-adv-x="481" />
<glyph unicode=" "  horiz-adv-x="481" />
<glyph unicode="&#x09;" horiz-adv-x="481" />
<glyph unicode="&#xa0;" horiz-adv-x="481" />
<glyph unicode="!" horiz-adv-x="948" d="M365 0l67 295h242l-68 -295h-241zM485 508l207 926h244l-219 -926h-232z" />
<glyph unicode="&#x22;" horiz-adv-x="688" d="M291 915l110 502h217l-122 -502h-205zM639 915l111 502h217l-123 -502h-205z" />
<glyph unicode="#" d="M88 350l43 189h209l66 278h-209l43 189h209l79 350h197l-80 -350h256l80 350h197l-80 -350h209l-43 -189h-209l-66 -278h209l-43 -189h-209l-80 -350h-196l80 350h-256l-80 -350h-197l80 350h-209zM537 539h256l65 278h-256z" />
<glyph unicode="$" d="M143 25l56 186q31 -4 74.5 -9t92 -9.5t98.5 -7.5t95 -5l100 434q-55 27 -111 57.5t-101.5 69.5t-74 89.5t-28.5 119.5q0 176 127 292t363 132l57 244h102l-57 -244q90 -4 179 -19.5t163 -27.5l-53 -184q-55 6 -113 12q-49 4 -108.5 8t-114.5 6l-90 -397 q55 -27 109.5 -57.5t97.5 -70.5t70.5 -92t27.5 -122q0 -96 -30 -176t-90 -138.5t-152.5 -94t-215.5 -41.5l-51 -226l-100 15l47 208q-100 2 -201.5 16.5t-167.5 31.5zM565 975q0 -51 41 -87t101 -69l79 350q-45 -6 -84.5 -21t-70.5 -40t-48.5 -58.5t-17.5 -74.5zM664 184 q39 8 77.5 24.5t69.5 44.5t50.5 67t19.5 88q0 53 -37 90t-92 69z" />
<glyph unicode="%" d="M248 12l786 1452l137 -49l-786 -1452zM289 1145q35 150 112.5 220.5t190.5 70.5t160 -71t12 -220q-35 -150 -115 -222.5t-192 -72.5q-113 0 -158 72.5t-10 222.5zM445 1028q4 -39 44 -39q41 0 65 38t42 118q16 78 11 114.5t-46 36.5t-63.5 -36.5t-38.5 -114.5 q-18 -78 -14 -117zM670 295q35 150 113.5 220.5t191.5 70.5t159 -71t11 -220q-35 -150 -114 -222.5t-191 -72.5q-113 0 -159 72.5t-11 222.5zM824.5 177q4.5 -38 45.5 -38t63.5 38t41.5 118q18 78 13 114.5t-46 36.5t-63.5 -36.5t-40.5 -114.5q-18 -80 -13.5 -118z" />
<glyph unicode="&#x26;" horiz-adv-x="1433" d="M180 434q33 145 139.5 240.5t247.5 148.5q-20 39 -33.5 72t-18.5 67.5t-2 74.5t15 89q18 76 60.5 135.5t102 100.5t134 62.5t158.5 21.5q182 0 272.5 -86t51.5 -252q-16 -72 -46 -127t-77 -104.5t-113.5 -93.5t-155.5 -91l172 -221q10 18 28 52t35 73t32.5 76t25.5 61 l215 -4q-18 -49 -43.5 -104.5t-52.5 -108.5t-53.5 -101t-46.5 -83l178 -215l-166 -144l-164 189q-63 -51 -119.5 -87t-115 -57.5t-124 -31t-145.5 -9.5q-242 0 -342 120t-49 337zM408 428q-27 -115 22 -180.5t182 -65.5q94 0 168 28t158 89l-270 373q-98 -29 -170 -93.5 t-90 -150.5zM738.5 975q6.5 -55 45.5 -103l33 -43q117 57 177.5 113.5t80.5 142.5q35 158 -127 158q-76 0 -130 -37.5t-70 -109.5q-16 -66 -9.5 -121z" />
<glyph unicode="'" horiz-adv-x="204" d="M201 926l110 491h217l-120 -491h-207z" />
<glyph unicode="(" horiz-adv-x="532" d="M137 307.5q6 155.5 41 308.5q18 76 45 157t58.5 160t67.5 153.5t71 142.5q80 158 170 307h241q-90 -156 -169 -315q-35 -68 -70 -144t-66.5 -154.5t-58.5 -156.5t-43 -150t-25.5 -147.5t-13.5 -150t-3 -146.5t5 -135q8 -150 31 -293h-242q-27 135 -35 283 q-10 125 -4 280.5z" />
<glyph unicode=")" horiz-adv-x="532" d="M-33 -246q88 156 168 316q33 68 68 143.5t66.5 153t58 155.5t43.5 152q33 143 38 296.5t-1 282.5q-8 150 -29 293h242q27 -137 34 -282q8 -127 2 -282t-41 -308q-18 -78 -44.5 -158t-58.5 -160t-67.5 -154.5t-68.5 -142.5q-80 -158 -170 -305h-240z" />
<glyph unicode="*" d="M403 926l246 153l-172 152l127 133l170 -145l139 241l146 -55l-137 -238h252l-39 -166h-252l24 -239l-168 -49l-24 243l-244 -157z" />
<glyph unicode="+" d="M190 467l52 221h346l82 356h229l-82 -356h352l-51 -221h-352l-82 -354h-229l82 354h-347z" />
<glyph unicode="," horiz-adv-x="348" d="M-43 -252q39 55 78 115.5t69.5 125t49 131t20.5 134.5h242q-10 -135 -75 -259t-163 -247h-221z" />
<glyph unicode="-" horiz-adv-x="901" d="M246 449l49 210h614l-49 -210h-614z" />
<glyph unicode="." horiz-adv-x="507" d="M119 0l67 295h242l-68 -295h-241z" />
<glyph unicode="/" d="M150 37l907 1427l194 -73l-907 -1428z" />
<glyph unicode="0" d="M149.5 331q-6.5 132 40.5 331q47 205 115 342t153 219t185 116.5t215 34.5t200 -34.5t132 -117.5t51 -219.5t-43 -340.5q-47 -199 -112.5 -331t-150.5 -210t-185.5 -111t-212.5 -33q-115 0 -201 33t-133 111t-53.5 210zM399 431.5q-4 -91.5 15.5 -146t63.5 -76t110 -21.5 q63 0 116.5 21.5t97.5 76t80 145.5t68 231q33 143 41 239t-9 154.5t-60 83t-111 24.5q-66 0 -120 -24.5t-100 -83t-84 -154.5t-71 -239q-33 -139 -37 -230.5z" />
<glyph unicode="1" d="M342 1061l494 291h215l-312 -1352h-229l250 1087l-352 -206z" />
<glyph unicode="2" d="M102 0l48 207l411 334q80 66 142.5 120t108.5 104t74.5 99t41.5 103q23 98 -20.5 145t-166.5 47q-53 0 -115.5 -6t-115.5 -14q-63 -8 -125 -21l29 203q68 14 139 27q61 10 135 18t146 8q211 0 297 -100t40 -293q-18 -80 -45.5 -141.5t-71.5 -118.5t-106.5 -115.5 t-150.5 -128.5l-330 -262h553l-49 -215h-869z" />
<glyph unicode="3" d="M111 25l67 196q66 -8 133 -14q57 -6 124 -10t124 -4q117 0 189.5 51t95.5 149q23 102 -28.5 144.5t-149.5 46.5h-265l48 200h262q37 0 75.5 16.5t71.5 43t57.5 61.5t34.5 72q23 98 -25 143t-153 45q-63 0 -127.5 -6t-118.5 -12q-63 -8 -120 -19l22 195q68 14 137 25 q59 10 130 18t136 8q240 0 322 -95t41 -280q-16 -66 -43 -111.5t-60.5 -77.5t-69.5 -54.5t-69 -40.5q41 -20 73 -47t49.5 -65t19.5 -90t-15 -126q-49 -211 -181 -310.5t-357 -99.5q-76 0 -153 6.5t-138 16.5q-72 10 -139 25z" />
<glyph unicode="4" d="M109 231l41 185l583 936h250l-565 -906h334l88 385h229l-88 -385h141l-49 -215h-141l-58 -247h-229l57 247h-593z" />
<glyph unicode="5" d="M100 41l74 199q70 -14 141 -25q61 -10 132 -17.5t137 -7.5q96 0 171.5 58.5t104.5 181.5q27 115 -20 165t-150 50q-51 0 -97 -8t-81 -19q-41 -10 -78 -24l-170 37l209 723h791l-50 -217h-583l-111 -336q43 14 86 26q37 10 79 18.5t77 8.5q199 0 293 -101.5t43 -322.5 q-27 -119 -79 -204t-124 -140t-162 -82t-190 -27q-78 0 -155 9.5t-142 21.5q-76 14 -146 33z" />
<glyph unicode="6" d="M217 674q45 199 117 334t162 216t196.5 115.5t225.5 34.5q57 0 121.5 -7t121.5 -15q66 -8 131 -21l-67 -203q-55 8 -117 17q-53 6 -116.5 11t-123.5 5q-147 0 -243.5 -92t-143.5 -287l29 10q29 11 73 25t97 25.5t100 11.5q211 0 306.5 -107.5t43.5 -328.5 q-53 -225 -203.5 -333t-375.5 -108q-248 0 -330 179.5t-4 517.5zM415 441.5q-3 -74.5 15.5 -132t59 -90.5t110.5 -33q113 0 189.5 61.5t105.5 182.5q27 115 -23.5 169t-156.5 54q-47 0 -96.5 -8t-90.5 -18q-47 -12 -92 -27q-18 -84 -21 -158.5z" />
<glyph unicode="7" d="M233 31l711 1046l14 60h-583l49 217h831l-65 -281l-746 -1106z" />
<glyph unicode="8" d="M130.5 189.5q-21.5 74.5 2.5 181.5q14 68 42 118t63.5 88.5t78.5 67.5t89 55q-80 63 -103.5 137t4.5 189q20 88 70.5 153.5t124 109.5t168 65.5t198.5 21.5q102 0 185.5 -25.5t136.5 -73.5t74.5 -119t1.5 -159q-14 -61 -34 -104t-49.5 -76t-70.5 -60.5t-98 -58.5 q82 -49 117.5 -127.5t7.5 -203.5q-25 -109 -81.5 -183.5t-136 -122t-177 -69t-203.5 -21.5q-104 0 -190.5 22.5t-142.5 71t-77.5 123zM385 393q-27 -113 30.5 -162t174.5 -49q119 0 200.5 49.5t108.5 165.5q18 78 -14.5 123t-104.5 72h-192q-86 -29 -136.5 -76t-66.5 -123z M543 981q-16 -70 6 -114t84 -79h192q80 35 125 79t62 112q23 96 -27.5 142t-165.5 46q-111 0 -182.5 -45t-93.5 -141z" />
<glyph unicode="9" d="M109 20l65 201q55 -8 117 -16q53 -6 115.5 -11.5t123.5 -5.5q150 0 248.5 95.5t141.5 275.5l-30 -9t-73 -20.5t-94 -21.5t-94 -10q-100 0 -178 28.5t-127.5 86t-63.5 140.5t10 191q25 109 80.5 189.5t132 134t168.5 80t195 26.5q244 0 330 -179t6 -527 q-47 -199 -117 -332t-160 -213t-197.5 -113t-226.5 -33q-57 0 -122.5 6.5t-120.5 14.5q-66 8 -129 22zM506 926q-27 -115 22.5 -169.5t155.5 -54.5q45 0 94 6.5t90 16.5q49 8 97 23q20 94 22 170.5t-17.5 132t-61.5 85t-109 29.5q-104 0 -185.5 -62.5t-107.5 -176.5z" />
<glyph unicode=":" horiz-adv-x="425" d="M92 0l68 295h241l-67 -295h-242zM233 621l70 294h242l-70 -294h-242z" />
<glyph unicode=";" horiz-adv-x="456" d="M-29 -238l236 523h242l-271 -523h-207zM266 621l70 294h242l-70 -294h-242z" />
<glyph unicode="&#x3c;" d="M285 479l53 234l790 391l-55 -236l-543 -268l418 -281l-55 -235z" />
<glyph unicode="=" d="M166 240l49 219h862l-49 -219h-862zM260 653l51 217h863l-52 -217h-862z" />
<glyph unicode="&#x3e;" d="M219 84l57 248l545 280l-420 269l54 223l610 -391l-53 -234z" />
<glyph unicode="?" horiz-adv-x="790" d="M225 0l64 281h241l-63 -281h-242zM317 1188l21 201q72 18 139 34q59 14 123 25.5t111 11.5q219 0 303 -93t35 -308q-16 -72 -55.5 -131.5t-89.5 -108.5t-103 -92t-100.5 -81t-80 -74.5t-40.5 -73.5l-19 -78h-227q2 23 4 45q2 18 4 37.5t6 32.5q18 80 86 148.5t144.5 131 t141 119.5t77.5 113q12 47 13 82.5t-16.5 59t-54.5 36t-102 12.5q-39 0 -93.5 -7t-105.5 -18q-59 -10 -121 -24z" />
<glyph unicode="@" horiz-adv-x="2017" d="M171 89q-19 187 46 464q57 248 163.5 425t256 289.5t336 166t401.5 53.5q457 0 624 -226.5t68 -650.5l-8 -35q-43 -182 -95 -297.5t-116.5 -182t-141.5 -91t-167 -24.5q-92 0 -147.5 20t-83.5 78q-33 -14 -76 -31.5t-90 -32t-95.5 -23.5t-91.5 -9q-82 0 -144 25.5t-97 87 t-39 162.5t31 253q29 127 69.5 226.5t101 167t145.5 103t206 35.5q29 0 62.5 -7t64.5 -17q37 -10 73 -23l7 29h223l-94 -410q-35 -145 -48.5 -229t-9.5 -126t24.5 -53t57.5 -11q39 0 71 13t60.5 54t56 120t58.5 208l8 37q39 174 30 297t-71.5 200.5t-179.5 114.5t-293 37 q-358 0 -582.5 -182.5t-310.5 -558.5q-47 -203 -39 -345.5t74 -231.5t194 -129t320 -40q31 0 81 2t97 6q55 4 119 10l-41 -210q-61 -6 -117 -11q-47 -4 -99 -7t-89 -3q-227 0 -392 49t-258.5 163t-112.5 301zM904.5 347.5q-1.5 -56.5 13 -89.5t42 -45t62.5 -12 q61 0 131 18.5t119 34.5q4 53 15 118.5t30 149.5l65 279l-57 14q-25 6 -51.5 11t-48.5 5q-70 0 -117 -17t-81 -57t-57.5 -104.5t-43.5 -158.5q-20 -90 -21.5 -146.5z" />
<glyph unicode="A" horiz-adv-x="1239" d="M59 0l574 1212q18 39 49 76t73 65.5t97 46t123 17.5h190l15 -1417h-226l-16 293h-498l-141 -293h-240zM539 506h405l-2 711h-5q-39 0 -67 -31q-30 -33 -45 -68z" />
<glyph unicode="B" horiz-adv-x="1249" d="M170 0l326 1417h510q92 0 165.5 -22.5t120.5 -67.5q48 -45 64 -113q7 -31 7 -67q0 -43 -11 -94q-16 -70 -38 -121t-50.5 -90t-66.5 -68t-87 -53q88 -39 123 -115q18 -39 18 -95q0 -53 -16 -122q-25 -106 -76 -180t-121.5 -120t-157.5 -67.5t-184 -21.5h-526zM444 207h287 q94 0 169 49t99 160q7 30 7 54q0 23 -6 41q-13 38 -40.5 61.5t-64.5 32.5t-74 9h-282zM584 813h278q92 0 157.5 56.5t88.5 154.5q8 32 8 58q0 52 -30 83q-46 47 -138 47h-272z" />
<glyph unicode="C" horiz-adv-x="1087" d="M214 400q9 138 50 317q43 190 101.5 326.5t139.5 225.5t190.5 131t254.5 42q61 0 128 -7.5t122 -17.5q66 -10 129 -22l-55 -203q-68 6 -131 14q-53 4 -112.5 9.5t-100.5 5.5q-92 0 -158.5 -29t-116 -92.5t-86.5 -161.5t-69 -240q-31 -135 -40 -230q-3 -28 -3 -53 q-1 -61 15 -103q22 -60 76 -87.5t152 -27.5q35 0 94.5 4t116.5 8q68 6 140 14l-41 -205q-72 -12 -144 -20q-61 -8 -130.5 -14.5t-123.5 -6.5q-156 0 -244.5 48.5t-125.5 142.5q-30 76 -30 180q0 25 2 52z" />
<glyph unicode="D" horiz-adv-x="1296" d="M170 0l326 1417h469q164 0 261 -47t140 -137q39 -81 38 -193v-26q-5 -129 -42 -293q-39 -166 -93.5 -300t-138 -227.5t-203.5 -143.5t-288 -50h-469zM446 213h242q100 0 172 41t123 111.5t84.5 164.5t58.5 203q25 107 33 195q2 25 2 47q-1 59 -15 103q-20 62 -75 95 t-156 33h-241z" />
<glyph unicode="E" horiz-adv-x="1142" d="M224 222q-4 26 -4 55q0 58 18 129q18 70 43.5 121t60.5 87.5t78 62t96 44.5q-33 27 -56.5 57.5t-34.5 70.5q-9 34 -9 76v16q2 52 20 122q25 92 75 158.5t118.5 110.5t153.5 64.5t178 20.5h399l-49 -209h-393q-92 0 -162 -45t-94 -139q-10 -38 -9 -70q0 -50 24 -86 q40 -58 132 -59h285l-45 -207h-295q-37 0 -79 -9t-82 -31.5t-70.5 -60.5t-45.5 -95q-10 -39 -10 -69q-1 -55 33 -82q52 -42 147 -42h434l-47 -213h-454q-96 0 -172 23.5t-123 72.5t-61 126z" />
<glyph unicode="F" horiz-adv-x="1114" d="M170 0l326 1417h862l-49 -213h-635l-111 -479h512l-47 -209h-512l-119 -516h-227z" />
<glyph unicode="G" horiz-adv-x="1228" d="M222 410q5 139 46 313q43 182 102.5 317.5t143.5 224.5t197.5 133t265.5 44q76 0 156.5 -8.5t146.5 -18.5q78 -10 152 -24l-54 -201q-72 8 -143 16q-61 6 -135 12.5t-137 6.5q-98 0 -170 -29t-126.5 -90.5t-93 -158.5t-69.5 -236q-31 -135 -40 -233q-3 -29 -3 -54 q0 -63 17 -108q22 -64 79 -93.5t160 -29.5q33 0 68.5 2t68.5 6q14 2 29.5 6t30 22.5t28.5 55.5t31 104l39 166h-170l47 201h395l-80 -348q-16 -84 -39.5 -156t-59.5 -127t-85 -90t-117 -41q-66 -6 -134.5 -11.5t-121.5 -5.5q-158 0 -252 51.5t-136 147.5q-38 86 -38 206 q0 14 1 28z" />
<glyph unicode="H" horiz-adv-x="1374" d="M170 0l326 1417h227l-135 -592h579l136 592h227l-326 -1417h-227l141 612h-579l-142 -612h-227z" />
<glyph unicode="I" horiz-adv-x="542" d="M156 0l325 1417h232l-326 -1417h-231z" />
<glyph unicode="J" horiz-adv-x="636" d="M39 -143l47 202q102 2 148.5 39t68.5 140l272 1181h228l-273 -1190q-25 -113 -60.5 -184.5t-93 -113.5t-139 -58t-198.5 -16z" />
<glyph unicode="K" horiz-adv-x="1212" d="M170 0l326 1417h227l-143 -626l69 4q137 23 228.5 81t150.5 141t94 185.5t60 214.5h233q-29 -96 -56.5 -200.5t-74.5 -205t-123 -188.5t-198 -149l186 -674h-258l-156 600q-27 -4 -55.5 -8t-56.5 -8l-95 -9l-131 -575h-227z" />
<glyph unicode="L" horiz-adv-x="1015" d="M170 0l326 1417h227l-277 -1202h537l-49 -215h-764z" />
<glyph unicode="M" horiz-adv-x="1738" d="M170 0l266 1155q14 55 33.5 104.5t50.5 84t75 54.5q40 19 96 19h11h172l66 -1108l438 838q59 121 134 194.5t176 75.5h204l-325 -1417h-219l266 1157q-12 -2 -27.5 -20.5t-32.5 -44.5l-432 -822q-59 -106 -106 -155t-88 -58h-156l-74 1106q-16 0 -24 -21.5t-19 -54.5 l-249 -1087h-236z" />
<glyph unicode="N" horiz-adv-x="1427" d="M170 0l326 1417h186q43 0 80 -6t66.5 -27.5t50 -60.5t28.5 -102l135 -924q6 -59 35 -59h4l273 1179h229l-326 -1417h-174q-94 4 -152.5 48t-74.5 142l-143 918q-8 72 -41 72l-271 -1180h-231z" />
<glyph unicode="O" horiz-adv-x="1325" d="M221 391q2 137 43 318q41 178 102.5 315t149.5 230.5t206 140.5t271 47q156 0 251 -50.5t139 -145.5q41 -89 41 -217v-17q-3 -140 -44 -320q-41 -182 -101 -316t-147.5 -223.5t-204 -132.5t-272.5 -43t-252 46.5t-140 138.5q-42 88 -42 217v12zM481 310q42 -122 224 -122 q92 0 160.5 29t120.5 91.5t90 159.5t69 232q37 161 37 272q0 74 -16 126q-40 132 -222 131q-92 0 -160.5 -33t-121 -98.5t-92.5 -164.5t-70 -233q-36 -159 -36 -266q0 -74 17 -124z" />
<glyph unicode="P" horiz-adv-x="1224" d="M170 0l326 1417h493q229 0 325 -124q61 -79 62 -204q0 -71 -20 -157q-53 -238 -209 -368t-385 -130h-262l-99 -434h-231zM549 645h262q127 0 205 83t106 212q13 54 13 97q0 61 -25 101q-43 68 -170 68h-262z" />
<glyph unicode="Q" horiz-adv-x="1325" d="M220 398q3 137 44 313q41 174 100.5 310t146.5 230.5t206 142.5t276 48q160 0 255 -51.5t138 -148.5q40 -88 40 -211v-25q-5 -140 -46 -316q-53 -236 -144 -396.5t-232 -242.5q14 -53 28.5 -106.5t38 -97.5t60 -74.5t92.5 -36.5l-99 -197q-84 14 -140 57.5t-93 104.5 t-61.5 135t-47.5 152q-29 -4 -60.5 -7.5t-66.5 -3.5q-160 0 -256 48.5t-139 141.5q-40 87 -40 213v18zM463 473q-1 -20 -1 -39q0 -70 18 -120q22 -64 76.5 -95t148.5 -31q96 0 165.5 31t120.5 93.5t87 158.5t67 229q31 129 39 228q2 26 2 51q0 65 -16 115q-21 67 -76.5 101 t-149.5 34q-96 0 -165.5 -34t-122 -100.5t-89.5 -166t-67 -228.5q-31 -131 -37 -227z" />
<glyph unicode="R" horiz-adv-x="1261" d="M170 0l326 1417h499q231 1 333 -111q66 -72 65 -197q0 -68 -19 -153q-35 -158 -120 -255t-210 -150l113 -551h-242l-96 500l-45 -2h-262l-115 -498h-227zM559 702h287q119 0 193.5 74t101.5 185q9 41 9 75q0 64 -32 106q-50 64 -162 64h-282z" />
<glyph unicode="S" horiz-adv-x="1087" d="M129 27l57 196q37 -6 90.5 -11t111.5 -10t116.5 -8.5t105.5 -3.5q45 0 95.5 14.5t93.5 43t70.5 75t27.5 107.5q0 57 -41 98t-103.5 76t-135 69t-135 78t-103.5 103t-41 145q0 98 38 180.5t111.5 141.5t180 92t243.5 33q102 0 207 -17.5t193 -33.5l-56 -193q-76 6 -149 15 q-63 4 -134 9t-130 5q-53 0 -103.5 -13.5t-88.5 -40t-60.5 -64.5t-22.5 -87q0 -53 42 -91t103.5 -72t135.5 -68.5t135 -80.5t103 -109.5t42 -151.5q0 -104 -34.5 -191.5t-104 -151t-176 -98.5t-250.5 -35q-57 0 -117.5 4.5t-119 11.5t-109.5 15t-88 19z" />
<glyph unicode="T" horiz-adv-x="993" d="M291 1196l51 221h958l-51 -221h-360l-275 -1196h-227l275 1196h-371z" />
<glyph unicode="U" horiz-adv-x="1320" d="M258 453l221 964h230l-222 -964q-12 -52 -12 -92q-1 -67 33 -103q54 -58 194 -57q141 0 224.5 57t115.5 195l222 964h229l-221 -964q-29 -125 -77 -214t-121 -146.5t-172 -84t-232 -26.5q-262 0 -366 110q-67 71 -67 199q0 72 21 162z" />
<glyph unicode="V" horiz-adv-x="1236" d="M385 1417h231v-1210q41 4 74 29.5t62 85.5l503 1095h250l-565 -1198q-111 -219 -360 -219h-179z" />
<glyph unicode="W" horiz-adv-x="1892" d="M360 0l35 1417h236l-53 -1210q29 0 47 22.5t28 59.5l396 917q35 88 85 142q47 50 117 49h11h131l-37 -1190q29 -4 46 20.5t30 59.5l469 1130h245l-538 -1245q-39 -92 -112 -133q-70 -39 -167 -39h-10h-164l41 1092l-385 -920q-35 -86 -103 -130q-65 -42 -160 -42h-9h-179 z" />
<glyph unicode="X" horiz-adv-x="1189" d="M53 0l561 702l-235 715h250l157 -549l410 549h266l-557 -715l232 -702h-250l-160 539l-408 -539h-266z" />
<glyph unicode="Y" horiz-adv-x="1153" d="M365 1417h245l152 -567l412 567h266l-609 -811l-139 -606h-227l139 606z" />
<glyph unicode="Z" horiz-adv-x="1167" d="M141 0v14q0 74 38 161q42 95 140 210l652 735q23 20 36 41t13 41h-610l49 215h895q2 -15 2 -30q0 -70 -44 -151q-54 -99 -141 -206l-649 -735q-27 -29 -37 -48.5t-12 -31.5h610l-49 -215h-893z" />
<glyph unicode="[" horiz-adv-x="614" d="M10 -252l410 1786h481l-49 -219h-252l-311 -1348h252l-52 -219h-479z" />
<glyph unicode="\" horiz-adv-x="1081" d="M430 1430l236 8l295 -1432l-232 -6z" />
<glyph unicode="]" horiz-adv-x="614" d="M2 -252l51 219h252l311 1348h-251l49 219h481l-414 -1786h-479z" />
<glyph unicode="^" d="M207 651l526 701h236l209 -701h-228l-137 479l-360 -479h-246z" />
<glyph unicode="_" d="M-31 -379l45 205h975l-47 -205h-973z" />
<glyph unicode="`" horiz-adv-x="1116" d="M524 1354l125 211l449 -191l-113 -186z" />
<glyph unicode="a" horiz-adv-x="1075" d="M174 272q0 82 15.5 171t47 174t80 163t114 136.5t148.5 92t185 33.5q57 0 99 -7t77 -17l180 26l-184 -790q0 -35 28.5 -58.5t73.5 -31.5l-55 -184q-104 4 -162.5 26.5t-81.5 69.5q-53 -39 -124.5 -67.5t-157.5 -28.5q-150 0 -216.5 76.5t-66.5 215.5zM373 276 q0 -49 25.5 -77.5t74.5 -28.5q37 0 77 14.5t77 35t66.5 44t45.5 39.5l64 277q16 66 29.5 127t29.5 129h-4q-25 4 -54.5 9t-58.5 5q-88 0 -156.5 -54.5t-116.5 -138.5t-73.5 -185t-25.5 -196z" />
<glyph unicode="b" horiz-adv-x="1114" d="M168 2l334 1446h223l-117 -502q61 37 132 63.5t137 26.5q139 0 204.5 -76.5t65.5 -216.5q0 -82 -15.5 -171t-47 -174t-80 -162.5t-114 -136t-149.5 -92.5t-184 -34q-55 2 -122.5 7.5t-127.5 9.5q-70 6 -139 12zM430 180q43 -6 86 -10t59 -4q88 0 157 54t117 138 t73.5 185.5t25.5 195.5q0 49 -26.5 78t-73.5 29q-31 0 -70 -12.5t-80 -32t-78.5 -42t-64.5 -40.5z" />
<glyph unicode="c" horiz-adv-x="892" d="M174 272q0 82 15.5 171t47 174t80 163t114 136.5t148.5 92t185 33.5q57 0 129 -11t139 -36l-49 -186q-6 6 -38 13t-71.5 13.5t-76.5 10.5t-52 4q-88 0 -156.5 -54.5t-116.5 -138.5t-73.5 -185t-25.5 -196q0 -49 26.5 -77.5t73.5 -28.5q37 0 83 16.5t90 39t79 47t51 40.5 l53 -178q-33 -29 -78.5 -56.5t-97 -50t-102.5 -35.5t-94 -13q-150 0 -216.5 76.5t-66.5 215.5z" />
<glyph unicode="d" horiz-adv-x="1114" d="M174 272q0 82 15.5 171t47 174t80 163t114 136.5t148.5 92t185 33.5q41 0 92 -6t105 -20l100 432h225l-334 -1448h-225l25 109q-23 -23 -63 -46.5t-84 -42t-87 -29.5t-72 -11q-133 0 -202.5 76.5t-69.5 215.5zM373 276q0 -49 26.5 -77.5t73.5 -28.5q35 0 85 19.5t99.5 46 t89 54t56.5 44.5l115 495q-23 4 -49.5 7.5t-51 6.5t-44 5t-28.5 2q-88 0 -156.5 -54.5t-116.5 -138.5t-73.5 -185t-25.5 -196z" />
<glyph unicode="e" horiz-adv-x="1038" d="M203 301q0 104 28 219q33 131 93.5 229.5t135.5 164t157.5 97t160.5 31.5q152 0 227.5 -76.5t75.5 -189.5q0 -66 -28.5 -132t-89.5 -132q-57 -61 -133 -100t-154 -61.5t-148.5 -32t-119.5 -11.5q0 -27 5 -51.5t20.5 -42.5t45 -28.5t76.5 -10.5q43 0 94 14.5t101.5 36 t94.5 46t73 44.5l4 -215q-25 -16 -66 -36.5t-93 -39t-112.5 -31.5t-124.5 -13q-176 0 -249.5 85t-73.5 236zM436 500q66 4 143.5 21.5t144.5 50t112 83t45 117.5q0 80 -127 80q-41 0 -88.5 -23.5t-92.5 -67.5t-80.5 -109.5t-56.5 -151.5z" />
<glyph unicode="f" horiz-adv-x="694" d="M-135 -307q82 41 134 72.5t84 65.5t49.5 76t31.5 105l188 815h-110l45 195h110l15 68q47 207 140 292.5t243 85.5q27 0 61.5 -3t65.5 -7q37 -6 73 -10l-47 -186q-27 2 -51 4q-23 2 -49.5 4t-48.5 2q-70 0 -106 -46t-58 -139l-14 -65h262l-45 -195h-263l-188 -817 q-25 -102 -55.5 -174t-81.5 -127t-130 -102t-198 -101z" />
<glyph unicode="g" horiz-adv-x="1083" d="M125 -457l53 191l82 -8q35 -4 74 -6.5t67 -2.5q141 0 228.5 99.5t109.5 277.5q-16 -12 -48 -31.5t-69.5 -39t-77.5 -33t-75 -13.5q-100 0 -163.5 37t-94.5 104.5t-31 163t27 212.5q27 115 75 215t118.5 174.5t167 117.5t220.5 43q41 0 109 -4t131 -8q74 -6 154 -10 q-57 -250 -97.5 -423t-66 -284.5t-39.5 -172t-20.5 -88t-7.5 -32.5l-1 -6q-59 -260 -189 -381.5t-347 -121.5q-53 0 -104.5 4t-92.5 10q-49 8 -92 16zM408 252q26 -78 120 -78q35 0 81 21.5t87 48.5q49 31 99 69l120 525q-33 2 -65 6l-58 4t-49 2q-57 0 -106 -29.5t-89 -79 t-69.5 -112t-48.5 -125.5q-30 -113 -30 -185q0 -40 8 -67z" />
<glyph unicode="h" horiz-adv-x="1150" d="M162 0l334 1448h223l-121 -512q23 20 58.5 39.5t77.5 35t87 24.5t88 9q100 0 157 -34q56 -34 78 -98q17 -48 17 -112q0 -24 -2 -48q-8 -96 -37 -217l-123 -535h-223l123 537q15 68 25 124q7 38 7 69q0 15 -2 28q-5 41 -30 63.5t-78 22.5q-70 0 -135 -25.5t-131 -70.5 l-170 -748h-223z" />
<glyph unicode="i" horiz-adv-x="522" d="M150 0l235 1022h223l-235 -1022h-223zM422 1184l53 235h223l-53 -235h-223z" />
<glyph unicode="j" horiz-adv-x="534" d="M-133 -307q82 41 134 72.5t83 65.5t48.5 76t31.5 105l233 1010h226l-234 -1012q-25 -102 -55.5 -174t-81.5 -127t-130 -102t-198 -101zM434 1182l53 235h226l-54 -235h-225z" />
<glyph unicode="k" horiz-adv-x="1042" d="M168 0l334 1448h223l-190 -825l47 6q166 35 255 139t132 254h231q-39 -168 -127 -289t-217 -198l178 -535h-241l-156 438q-20 -6 -41 -11t-41 -9l-72 -12l-92 -406h-223z" />
<glyph unicode="l" horiz-adv-x="526" d="M152 0l333 1448h224l-334 -1448h-223z" />
<glyph unicode="m" horiz-adv-x="1748" d="M172 0l236 1022h223l-35 -141q61 66 144 114.5t159 48.5q82 0 142.5 -27.5t86.5 -92.5q33 20 76 41.5t90 39t96.5 28.5t96.5 11q98 0 159 -32q60 -30 88 -94q24 -55 24 -136q0 -12 -1 -24q-4 -96 -33 -223l-122 -535h-224l121 524q17 74 25 134q4 31 4 56q0 24 -4 44 q-8 41 -36 62.5t-83 21.5q-78 0 -142.5 -34t-99.5 -67q0 -16 -11 -76.5t-28 -134.5l-120 -530h-226l121 526q19 76 27 136q5 35 4 63q0 20 -2 36q-6 40 -33 60.5t-78 20.5q-35 0 -72.5 -16.5t-74.5 -41t-69 -53.5t-52 -53l-154 -678h-223z" />
<glyph unicode="n" horiz-adv-x="1155" d="M168 0l235 1022h224l-29 -117q33 27 72 51.5t82 44t88 31.5t88 12q96 0 150 -34q56 -34 76 -98q14 -46 14 -106q0 -26 -2 -54q-8 -96 -38 -217l-122 -535h-226l123 532q14 70 28.5 126.5t14.5 97.5t-20.5 63.5t-73.5 22.5q-41 0 -83 -12.5t-82 -33t-73.5 -46t-60.5 -50.5 l-162 -700h-223z" />
<glyph unicode="o" horiz-adv-x="1083" d="M190 320q4 102 31 223q27 117 70 209t108.5 157.5t159.5 100t223 34.5q125 0 202 -41.5t111.5 -114.5t34.5 -172.5t-26 -215.5q-27 -117 -70 -213.5t-110.5 -165t-162.5 -106.5t-224 -38q-131 0 -207 43t-110 120q-31 70 -31 161q1 9 1 19zM414 372q-2 -19 -2 -36 q0 -41 10 -72q14 -45 52 -68.5t108 -23.5t118 25.5t82.5 71.5t57 110.5t41.5 140.5q18 76 21 138v19q0 49 -12 85q-16 43 -52.5 65.5t-100.5 22.5q-66 0 -114 -23.5t-83.5 -66.5t-59 -105.5t-42.5 -140.5q-18 -78 -24 -142z" />
<glyph unicode="p" horiz-adv-x="1114" d="M66 -440l337 1462h224l-19 -82q63 39 136 67.5t143 28.5q139 0 204.5 -76.5t65.5 -216.5q0 -82 -15.5 -171t-47 -174t-79.5 -162.5t-113.5 -136t-149.5 -92.5t-185 -34q-39 0 -85 5.5t-93 15.5l-100 -434h-223zM432 182q45 -8 91 -12t63 -4q88 0 156.5 54t116.5 138 t73.5 185.5t25.5 195.5q0 49 -26.5 78t-73.5 29q-31 0 -73 -14.5t-85 -35t-81.5 -44t-63.5 -41.5z" />
<glyph unicode="q" horiz-adv-x="1110" d="M174 272q0 82 15.5 171t47 174t80 163t114 136.5t148.5 92t185 33.5q21 1 45 1q64 0 145 -8q111 -11 228 -21l-336 -1454h-228l121 522q-74 -45 -150.5 -73.5t-131.5 -28.5q-150 0 -216.5 76.5t-66.5 215.5zM375 285q0 -49 26.5 -78t73.5 -29q31 0 76 15.5t91 37t87 47 t68 46.5l121 505q-23 4 -49.5 7.5t-51 6.5t-44 5t-28.5 2q-88 0 -156.5 -53.5t-116.5 -136t-72.5 -182t-24.5 -193.5z" />
<glyph unicode="r" horiz-adv-x="733" d="M154 0l235 1022h225l-34 -156q23 20 53.5 47t71 51.5t94 47t121.5 35.5l-56 -240q-72 -12 -125 -33.5t-93 -45t-68.5 -48.5t-53.5 -45l-145 -635h-225z" />
<glyph unicode="s" horiz-adv-x="995" d="M125 18l53 191q68 -12 133 -21q55 -8 114.5 -14t102.5 -6q39 0 76 12.5t64.5 32.5t44 47t16.5 55q0 33 -33.5 57.5t-83 47t-109 46t-108.5 56.5t-82.5 80t-33.5 115q0 70 28.5 129t86 104t143.5 71t198 26q41 0 90 -5.5t95.5 -12.5t87.5 -15t65 -17l-47 -180 q-66 8 -129 17q-53 6 -112.5 12t-104.5 6q-78 0 -131 -38t-53 -89q0 -31 33.5 -53.5t85 -44t109.5 -46t109.5 -57t85 -79t33.5 -109.5q0 -74 -26.5 -138.5t-83 -112.5t-145.5 -75.5t-212 -27.5q-49 0 -111.5 5t-117.5 13q-66 8 -131 18z" />
<glyph unicode="t" horiz-adv-x="727" d="M240 825l43 195h123l69 301h223l-69 -301h270l-43 -195h-270l-103 -436q-16 -72 -16 -118q1 -25 5 -43q14 -50 77 -50h49.5t48.5 2q27 2 55 4l-30 -182q-37 -8 -74 -14q-31 -4 -65.5 -8.5t-61.5 -4.5q-164 1 -214 89q-26 46 -26 122q0 72 23 172l108 467h-122z" />
<glyph unicode="u" horiz-adv-x="1146" d="M250 98q-22 54 -22 137q0 103 34 252l125 535h225l-123 -533q-33 -139 -33 -214q0 -15 2 -27q8 -74 87 -74q33 0 77 15.5t87 39t77.5 49t51.5 46.5l157 698h226l-236 -1022h-225l26 106q-27 -23 -64.5 -45t-81.5 -40.5t-90 -31t-87 -12.5q-164 0 -213 121z" />
<glyph unicode="v" horiz-adv-x="989" d="M276 1022h224l2 -832q25 4 49 25t41 55l356 752h236l-400 -821q-23 -41 -51 -78t-65 -63.5t-87.5 -43t-115.5 -16.5h-164z" />
<glyph unicode="w" horiz-adv-x="1542" d="M250 0l24 1022h215l-34 -823q41 6 82 73l278 598q63 129 150 134h147v-805q25 0 43.5 19.5t30.5 47.5l321 756h230l-369 -844q-41 -90 -116.5 -132t-180.5 -46h-151l8 698l-230 -512q-78 -182 -272 -186h-176z" />
<glyph unicode="x" horiz-adv-x="950" d="M45 0l410 510l-174 512h233l109 -352l272 352h248l-414 -512l178 -510h-233l-111 350l-270 -350h-248z" />
<glyph unicode="y" horiz-adv-x="991" d="M84 -287q90 39 148.5 66.5t98.5 57.5t68.5 68t57.5 97q-29 0 -56.5 16.5t-50 46t-37 71.5t-14.5 95l-25 791h211l21 -694q6 -102 51 -113l399 807h230l-498 -1012q-51 -102 -100 -174t-114.5 -127t-156 -102t-223.5 -101z" />
<glyph unicode="z" horiz-adv-x="978" d="M129 0v16q1 62 27 128q30 74 108 157l518 522h-473l45 199h733q3 -16 3 -33q0 -47 -20 -100q-28 -72 -114 -162l-528 -528h477l-45 -199h-731z" />
<glyph unicode="{" horiz-adv-x="665" d="M162 545l43 188q63 14 105 32.5t70 43.5t43 55.5t26 69.5q4 20 9 53t11 70t12 72.5t13 64.5q23 96 62.5 162.5t101 108.5t145.5 62.5t194 24.5l-47 -219q-57 -4 -95 -13t-62.5 -27.5t-39 -46t-22.5 -68.5q-6 -25 -11 -60t-11.5 -71.5t-11.5 -69.5t-11 -55 q-14 -63 -35.5 -108.5t-53.5 -77t-76 -54.5t-103 -41q104 -37 135 -101.5t2 -189.5q-6 -25 -15.5 -54.5t-19.5 -62t-19 -64.5t-16 -58q-10 -41 -9 -70t16.5 -48.5t49 -29.5t89.5 -14l-53 -219q-219 8 -300 90t-40 266q6 31 16 65.5t21.5 68.5t20.5 64.5t13 49.5 q18 76 -10.5 127t-136.5 84z" />
<glyph unicode="|" d="M299 -512l473 2048h229l-473 -2048h-229z" />
<glyph unicode="}" horiz-adv-x="665" d="M-43 -276l47 219q57 4 95 13t62.5 27.5t38 46t23.5 68.5q6 25 11.5 60t11.5 71.5t11 69.5t9 55q14 63 36 107.5t54.5 77t76.5 55t104 41.5q-104 37 -135.5 101.5t-2.5 189.5q6 25 15.5 54.5t19.5 62t19.5 64.5t15.5 58q8 39 8 69t-15.5 49.5t-49 29.5t-88.5 14l53 219 q219 -8 300 -90t40 -266q-6 -31 -17.5 -65.5t-21.5 -68.5t-19.5 -64.5t-13.5 -49.5q-18 -78 10.5 -128t137.5 -83l-43 -188q-63 -14 -105.5 -32.5t-70 -43.5t-44 -55.5t-24.5 -69.5q-4 -23 -9 -54.5t-11.5 -68.5t-12.5 -72.5t-12 -64.5q-23 -96 -63 -162.5t-101 -108.5 t-145 -62.5t-195 -24.5z" />
<glyph unicode="~" d="M252 473l29 211q41 31 86 53q39 20 87 38t99 18q41 0 87 -14.5t92 -33t89 -33t80 -14.5q29 0 68 13.5t73 29.5q41 18 84 43l-34 -211q-37 -31 -78 -53q-35 -20 -82 -36.5t-94 -16.5q-41 0 -89.5 14.5t-96.5 32.5t-91 32.5t-74 14.5q-35 0 -75.5 -14.5t-75.5 -30.5 q-41 -20 -84 -43z" />
<glyph unicode="&#xa2;" horiz-adv-x="894" d="M166 510q53 225 175 330.5t298 117.5l49 222h189l-52 -230q31 -4 62 -7t55 -7q29 -4 55 -6l-51 -195q-49 2 -96 4q-41 2 -83 3t-71 1q-70 0 -120 -11t-84.5 -37.5t-58 -71.5t-38.5 -113q-16 -68 -14 -113t25.5 -71.5t70.5 -36.5t121 -10q29 0 71 1t81 3q45 2 94 6 l-37 -195q-29 -4 -59 -8q-27 -4 -60 -6t-63 -6l-56 -234h-190l53 226q-176 10 -247.5 111.5t-18.5 332.5z" />
<glyph unicode="&#xa3;" d="M111 0l47 207h114q41 0 70 38t45 109l78 334h-166l47 205h166l20 86q27 117 67 196.5t91 128t113.5 69t134.5 20.5q41 0 96.5 -7.5t104.5 -15.5q57 -10 118 -22l-53 -191q-59 4 -110 8q-43 4 -86 7.5t-62 3.5q-82 0 -124 -41t-68 -158l-21 -84h400l-48 -205h-401 l-86 -371q-10 -37 -21.5 -65.5t-27.5 -44.5h295q96 4 155 33l-10 -203q-33 -18 -77 -25.5t-97 -9.5h-170t-182 -1t-182.5 -1h-169.5z" />
<glyph unicode="&#xa5;" horiz-adv-x="1105" d="M164 291l45 190h342l22 97l-6 22h-331l45 191h235l-201 561h256l172 -529l414 529h256l-455 -561h232l-45 -191h-326l-14 -22l-23 -97h336l-45 -190h-336l-65 -291h-232l66 291h-342z" />
<glyph unicode="&#xa7;" d="M86 -313l66 182q61 -8 120 -16q51 -6 106.5 -10.5t98.5 -4.5q113 0 177.5 37t82.5 117q8 39 -2 62.5t-40.5 40t-83 30.5t-130.5 33q-80 18 -137 41.5t-89 58.5t-40 86t10 127q8 41 31 82t50.5 78t56 65.5t51.5 42.5q-37 33 -49.5 82t10.5 142q41 184 170 269t334 85 q53 0 112.5 -7t110.5 -16q59 -8 117 -20l-52 -182q-63 6 -123 14q-51 6 -105 11t-91 5q-125 0 -180.5 -35.5t-75.5 -119.5q-8 -35 3 -58.5t42 -41t81 -32t122 -30.5q82 -18 137 -40t86 -55.5t38 -84t-11 -125.5q-10 -39 -29 -79t-41.5 -77t-48 -68.5t-45.5 -54.5 q31 -33 40 -77t-12 -138q-43 -190 -164.5 -275t-338.5 -85q-53 0 -117 6t-119 14q-66 8 -129 21zM454 450.5q3 -24.5 19 -42t46 -28.5t73 -22q117 -29 182 -55q6 6 17.5 24.5t23.5 41t22.5 49t16.5 51.5q16 70 -21 99.5t-137 54.5q-41 10 -83 19t-70 22q-6 -6 -18.5 -22.5 t-25 -38t-23.5 -46.5t-17 -45q-8 -37 -5 -61.5z" />
<glyph unicode="&#xa8;" horiz-adv-x="1257" d="M449 1257l55 234h215l-55 -234h-215zM879 1257l55 234h213l-55 -234h-213z" />
<glyph unicode="&#xa9;" d="M212.5 674.5q-16.5 99.5 8.5 212.5q27 115 89.5 215t150.5 174t193.5 117t217.5 43q117 0 204 -44t139.5 -120t66.5 -174.5t-10 -208.5q-27 -115 -87.5 -214.5t-147.5 -173t-194.5 -115.5t-226.5 -42q-111 0 -195.5 42t-138 115.5t-70 173zM332 723q12 -78 53 -135.5 t107.5 -91t154.5 -33.5q90 0 173 33.5t150.5 91t117 135.5t69.5 166t7 167t-54 137t-108.5 92t-155.5 34t-171 -34t-150.5 -92t-116 -137t-68.5 -167t-8 -166zM494 897q35 154 111.5 230.5t217.5 76.5q35 0 63.5 -2t49.5 -4q23 -4 41 -6l-45 -186q-18 2 -41 6q-20 2 -48 4 t-63 2q-47 0 -70.5 -37t-33.5 -84q-12 -53 -5 -95t50 -42q35 0 61.5 1t48.5 3q23 2 46 6l-41 -182q-20 -4 -43 -8t-51.5 -6.5t-63.5 -2.5q-141 0 -183 77t-1 249z" />
<glyph unicode="&#xab;" horiz-adv-x="1179" d="M219 418l37 166l502 317l-53 -227l-277 -170l195 -191l-54 -229zM725 418l37 166l502 317l-54 -227l-276 -170l194 -191l-53 -229z" />
<glyph unicode="&#xad;" horiz-adv-x="901" d="M246 449l49 210h614l-49 -210h-614z" />
<glyph unicode="&#xae;" d="M178.5 666.5q-14.5 105.5 14.5 222.5q27 117 88 221t150 182t203 124t245 46q129 0 223 -45t150.5 -122.5t71.5 -182t-11 -223.5q-27 -117 -91.5 -221.5t-156.5 -183t-207 -125t-244 -46.5q-131 0 -223 46.5t-145 124t-67.5 183zM299.5 711q15.5 -84 59.5 -147.5 t117 -100.5t165 -37t181 37t163 100.5t128 147.5t77 178q23 98 7.5 182t-61.5 146.5t-118 98.5t-164 36q-94 0 -183 -36t-163 -98.5t-126 -146.5t-75 -182q-23 -94 -7.5 -178zM426 565l149 645h244q119 0 174.5 -45t28.5 -159q-18 -78 -47 -122t-86 -77l45 -242h-184 l-29 219h-74l-51 -219h-170zM674 913h78q82 0 102 82q18 84 -72 84h-69z" />
<glyph unicode="&#xb4;" horiz-adv-x="1191" d="M530 1376l537 191l27 -211l-539 -168z" />
<glyph unicode="&#xb8;" horiz-adv-x="1705" d="M659 -438l37 133q20 -2 41 -2q16 -2 37 -2h37q82 0 96 63q8 33 -10 44.5t-59 11.5h-66l45 192h98l-20 -88q61 0 104 -7t70 -26.5t34 -53.5t-5 -87q-23 -98 -91.5 -148.5t-166.5 -50.5q-66 0 -123 10q-31 4 -58 11z" />
<glyph unicode="&#xbb;" horiz-adv-x="1179" d="M145 100l52 228l280 192l-196 170l53 228l354 -320l-39 -166zM651 100l51 228l281 192l-197 170l54 228l354 -320l-39 -166z" />
<glyph unicode="&#xc0;" horiz-adv-x="1239" d="M59 0l574 1212q18 39 49 76t73 65.5t97 46t123 17.5h190l15 -1417h-226l-16 293h-498l-141 -293h-240zM539 506h405l-2 711q-43 2 -72.5 -31t-44.5 -68zM702 1729l125 210l451 -190l-115 -188z" />
<glyph unicode="&#xc5;" horiz-adv-x="1239" d="M59 0l639 1356q-29 57 -10 139q12 57 45 102t77 76t98.5 47.5t113.5 16.5q57 0 105.5 -16.5t79 -47.5t41.5 -76t-1 -102q-10 -43 -31.5 -79t-50.5 -64l15 -1352h-222l-16 293h-504l-141 -293h-238zM537 506h411l-2 711h-76zM862 1495q-14 -61 47 -78h78q70 16 86 78 q10 39 -14.5 60.5t-73.5 21.5q-47 0 -80 -21.5t-43 -60.5z" />
<glyph unicode="&#xc6;" horiz-adv-x="1677" d="M35 0l672 1417h1185l-49 -213h-635l-92 -397h512l-45 -203h-512l-90 -391h635l-49 -213h-860l67 293h-366l-142 -293h-231zM506 506h317l160 700h-149z" />
<glyph unicode="&#xc9;" horiz-adv-x="1142" d="M224.5 222q-13.5 77 13.5 184q18 70 43.5 121t60.5 87.5t78 62t96 44.5q-33 27 -56.5 57.5t-34.5 70.5t-9 92t20 122q25 92 75 158.5t118.5 110.5t153.5 64.5t178 20.5h399l-49 -209h-393q-92 0 -162 -45t-94 -139q-25 -98 15 -156.5t132 -58.5h285l-45 -207h-295 q-37 0 -79 -9t-82 -31.5t-70.5 -60.5t-45.5 -95q-29 -109 23.5 -151t146.5 -42h434l-47 -213h-454q-96 0 -172 23.5t-123 72.5t-60.5 126zM754 1765l536 191l27 -211l-539 -168z" />
<glyph unicode="&#xca;" horiz-adv-x="1142" d="M224.5 222q-13.5 77 13.5 184q18 70 43.5 121t60.5 87.5t78 62t96 44.5q-33 27 -56.5 57.5t-34.5 70.5t-9 92t20 122q25 92 75 158.5t118.5 110.5t153.5 64.5t178 20.5h399l-49 -209h-393q-92 0 -162 -45t-94 -139q-25 -98 15 -156.5t132 -58.5h285l-45 -207h-295 q-37 0 -79 -9t-82 -31.5t-70.5 -60.5t-45.5 -95q-29 -109 23.5 -151t146.5 -42h434l-47 -213h-454q-96 0 -172 23.5t-123 72.5t-60.5 126zM610 1622l338 293h205l203 -293h-254l-90 115l-142 -115h-260z" />
<glyph unicode="&#xd2;" horiz-adv-x="1325" d="M219 385q2 135 43 315q41 178 102.5 316.5t149.5 232.5t207 143.5t272 49.5q156 0 251 -48t140.5 -142.5t42 -232.5t-44.5 -319q-41 -182 -101 -317t-148.5 -225t-205 -135.5t-272.5 -45.5t-252 45.5t-141 136.5t-43 226zM481 310q42 -122 224 -122q92 0 160.5 29 t120.5 91.5t90 159.5t69 232q61 266 21 397.5t-222 131.5q-92 0 -160.5 -33t-121 -98.5t-92.5 -164.5t-70 -233q-61 -268 -19 -390zM768 1729l125 210l450 -190l-114 -188z" />
<glyph unicode="&#xd3;" horiz-adv-x="1325" d="M219 385q2 135 43 315q41 178 102.5 316.5t149.5 232.5t207 143.5t272 49.5q156 0 251 -48t140.5 -142.5t42 -232.5t-44.5 -319q-41 -182 -101 -317t-148.5 -225t-205 -135.5t-272.5 -45.5t-252 45.5t-141 136.5t-43 226zM481 310q42 -122 224 -122q92 0 160.5 29 t120.5 91.5t90 159.5t69 232q61 266 21 397.5t-222 131.5q-92 0 -160.5 -33t-121 -98.5t-92.5 -164.5t-70 -233q-61 -268 -19 -390zM762 1765l536 191l27 -211l-539 -168z" />
<glyph unicode="&#xd4;" horiz-adv-x="1325" d="M219 385q2 135 43 315q41 178 102.5 316.5t149.5 232.5t207 143.5t272 49.5q156 0 251 -48t140.5 -142.5t42 -232.5t-44.5 -319q-41 -182 -101 -317t-148.5 -225t-205 -135.5t-272.5 -45.5t-252 45.5t-141 136.5t-43 226zM481 310q42 -122 224 -122q92 0 160.5 29 t120.5 91.5t90 159.5t69 232q61 266 21 397.5t-222 131.5q-92 0 -160.5 -33t-121 -98.5t-92.5 -164.5t-70 -233q-61 -268 -19 -390zM672 1620l338 293h204l203 -293h-254l-90 115l-141 -115h-260z" />
<glyph unicode="&#xd8;" horiz-adv-x="1343" d="M129 -176l182 262q-84 86 -92 238.5t43 375.5q41 178 102.5 316.5t149.5 232.5t207 143.5t272 49.5q137 0 236 -41l170 241l133 -53l-191 -272q78 -92 85.5 -245.5t-44.5 -371.5q-41 -182 -101 -317t-148.5 -225t-205 -135.5t-272.5 -45.5q-133 0 -225 35l-178 -256z M463 478q-8 -93 12 -156l612 876q-55 31 -143 31q-92 0 -160.5 -33t-121 -98.5t-92 -165t-70.5 -232.5q-29 -129 -37 -222zM569 211q48 -23 136 -23q92 0 160.5 29t120.5 91.5t90 159.5t69 232q59 246 29 375z" />
<glyph unicode="&#xe0;" d="M184 272q0 53 8.5 116t24.5 128q59 244 193.5 385t353.5 141q57 0 99 -7t77 -17l180 26l-184 -790q0 -35 28.5 -58.5t73.5 -31.5l-55 -184q-104 4 -162.5 26.5t-81.5 69.5q-53 -39 -124.5 -67.5t-157.5 -28.5q-150 0 -211.5 76.5t-61.5 215.5zM383 276q0 -49 20.5 -77.5 t69.5 -28.5q37 0 77 14.5t77 35t66.5 44t45.5 39.5l64 277q16 66 29.5 127t29.5 129h-4q-25 4 -54.5 9t-58.5 5q-133 0 -209.5 -93t-117.5 -268q-16 -66 -25.5 -120t-9.5 -93zM549 1354l125 211l448 -191l-112 -186z" />
<glyph unicode="&#xe5;" d="M184 272q0 53 8.5 116t24.5 128q59 244 193.5 385t353.5 141q57 0 99 -7t77 -17l180 26l-184 -790q0 -35 28.5 -58.5t73.5 -31.5l-55 -184q-104 4 -162.5 26.5t-81.5 69.5q-53 -39 -124.5 -67.5t-157.5 -28.5q-150 0 -211.5 76.5t-61.5 215.5zM383 276q0 -49 20.5 -77.5 t69.5 -28.5q37 0 77 14.5t77 35t66.5 44t45.5 39.5l64 277q16 66 29.5 127t29.5 129h-4q-25 4 -54.5 9t-58.5 5q-133 0 -209.5 -93t-117.5 -268q-16 -66 -25.5 -120t-9.5 -93zM616 1354q10 47 38 89t66 72.5t84 48t95 17.5q47 0 85 -17.5t60.5 -48t30.5 -72.5t-2 -89 q-12 -49 -38.5 -91t-64.5 -73t-84 -48.5t-93 -17.5q-98 0 -149 66t-28 164zM768 1354q-8 -35 9.5 -57.5t51.5 -22.5q33 0 61 22.5t36 57.5q8 33 -9.5 55.5t-50.5 22.5q-35 0 -62.5 -22.5t-35.5 -55.5z" />
<glyph unicode="&#xe6;" horiz-adv-x="1695" d="M193 303q18 82 56 139.5t91 93t120.5 54t149.5 26.5l244 19l16 70q16 66 -9 100.5t-85 34.5q-57 0 -126.5 -4.5t-131.5 -8.5q-72 -6 -143 -12l39 191q76 10 149 18q63 8 134 14t130 6q94 0 158 -25.5t90 -84.5q66 59 143.5 84.5t170.5 25.5q213 0 287.5 -120.5 t23.5 -345.5l-51 -160h-619q-25 -115 10 -179.5t158 -64.5q55 0 119.5 2t122.5 6q68 4 133 11l-35 -168q-61 -14 -129 -25q-57 -10 -129 -16.5t-143 -6.5q-217 0 -293 103l-62 -25q-23 -8 -57.5 -21.5t-80.5 -25.5t-101.5 -21.5t-118.5 -9.5q-135 0 -200.5 86.5t-30.5 239.5 zM420 309q-16 -70 9.5 -106.5t72.5 -36.5q41 0 87 7t86 16.5t66.5 16.5t30.5 9q4 53 15.5 118.5t27.5 131.5l-231 -14q-63 -4 -105.5 -40t-58.5 -102zM1067 588h414q31 135 1 201.5t-143 66.5t-177 -68.5t-95 -199.5z" />
<glyph unicode="&#xe9;" horiz-adv-x="1038" d="M203 301q0 104 28 219q33 131 93.5 229.5t135.5 164t157.5 97t160.5 31.5q152 0 227.5 -76.5t75.5 -189.5q0 -66 -28.5 -132t-89.5 -132q-57 -61 -133 -100t-154 -61.5t-148.5 -32t-119.5 -11.5q0 -27 5 -51.5t20.5 -42.5t45 -28.5t76.5 -10.5q43 0 94 14.5t101.5 36 t94.5 46t73 44.5l4 -215q-25 -16 -66 -36.5t-93 -39t-112.5 -31.5t-124.5 -13q-176 0 -249.5 85t-73.5 236zM436 500q66 4 143.5 21.5t144.5 50t112 83t45 117.5q0 80 -127 80q-41 0 -88.5 -23.5t-92.5 -67.5t-80.5 -109.5t-56.5 -151.5zM569 1376l537 191l27 -211 l-539 -168z" />
<glyph unicode="&#xea;" horiz-adv-x="1038" d="M203 301q0 104 28 219q33 131 93.5 229.5t135.5 164t157.5 97t160.5 31.5q152 0 227.5 -76.5t75.5 -189.5q0 -66 -28.5 -132t-89.5 -132q-57 -61 -133 -100t-154 -61.5t-148.5 -32t-119.5 -11.5q0 -27 5 -51.5t20.5 -42.5t45 -28.5t76.5 -10.5q43 0 94 14.5t101.5 36 t94.5 46t73 44.5l4 -215q-25 -16 -66 -36.5t-93 -39t-112.5 -31.5t-124.5 -13q-176 0 -249.5 85t-73.5 236zM436 500q66 4 143.5 21.5t144.5 50t112 83t45 117.5q0 80 -127 80q-41 0 -88.5 -23.5t-92.5 -67.5t-80.5 -109.5t-56.5 -151.5zM461 1198l338 332h180l190 -332 h-241l-80 145l-146 -145h-241z" />
<glyph unicode="&#xf2;" horiz-adv-x="1087" d="M183 298q1 99 30 220q27 117 71 213t111.5 166t162.5 108.5t224 38.5q125 0 202 -38.5t114 -109.5t37 -167t-27 -213t-71 -215t-111.5 -171t-163.5 -113t-225 -40q-131 0 -208 40t-112 111t-34 170zM416 375.5q-6 -64.5 7 -109.5t51 -69.5t108 -24.5t118 25.5t81.5 70.5 t56 108.5t41.5 139.5q18 76 22 137.5t-11.5 105.5t-52 67.5t-100.5 23.5q-66 0 -114 -22.5t-82.5 -65.5t-58 -104.5t-42.5 -139.5q-18 -78 -24 -142.5zM467 1354l125 211l448 -191l-112 -186z" />
<glyph unicode="&#xf3;" horiz-adv-x="1087" d="M183 298q1 99 30 220q27 117 71 213t111.5 166t162.5 108.5t224 38.5q125 0 202 -38.5t114 -109.5t37 -167t-27 -213t-71 -215t-111.5 -171t-163.5 -113t-225 -40q-131 0 -208 40t-112 111t-34 170zM416 375.5q-6 -64.5 7 -109.5t51 -69.5t108 -24.5t118 25.5t81.5 70.5 t56 108.5t41.5 139.5q18 76 22 137.5t-11.5 105.5t-52 67.5t-100.5 23.5q-66 0 -114 -22.5t-82.5 -65.5t-58 -104.5t-42.5 -139.5q-18 -78 -24 -142.5zM555 1376l537 191l26 -211l-538 -168z" />
<glyph unicode="&#xf4;" horiz-adv-x="1087" d="M183 298q1 99 30 220q27 117 71 213t111.5 166t162.5 108.5t224 38.5q125 0 202 -38.5t114 -109.5t37 -167t-27 -213t-71 -215t-111.5 -171t-163.5 -113t-225 -40q-131 0 -208 40t-112 111t-34 170zM416 375.5q-6 -64.5 7 -109.5t51 -69.5t108 -24.5t118 25.5t81.5 70.5 t56 108.5t41.5 139.5q18 76 22 137.5t-11.5 105.5t-52 67.5t-100.5 23.5q-66 0 -114 -22.5t-82.5 -65.5t-58 -104.5t-42.5 -139.5q-18 -78 -24 -142.5zM424 1198l338 332h180l191 -332h-242l-80 145l-145 -145h-242z" />
<glyph unicode="&#xf8;" horiz-adv-x="1083" d="M135 -174l146 225q-82 70 -91.5 195t27.5 284q27 117 70 211.5t110.5 162t161.5 104t223 36.5q70 0 125 -12l133 209l129 -51l-141 -215q86 -66 99.5 -187.5t-21.5 -277.5q-27 -117 -71 -215t-111.5 -169t-162.5 -110t-224 -39q-78 0 -140 17l-135 -219zM415 367.5 q-5 -66.5 11 -111.5l371 586q-14 4 -28.5 6t-31.5 2q-66 0 -114 -22.5t-82.5 -65.5t-58.5 -104.5t-42 -139.5q-20 -84 -25 -150.5zM520 178q27 -6 62 -6q70 0 118 25.5t81.5 70.5t56 108.5t41.5 139.5q18 78 21 141.5t-13 106.5z" />
<glyph unicode="&#x2c6;" horiz-adv-x="1705" d="M760 1198l338 332h180l190 -332h-241l-80 145l-146 -145h-241z" />
<glyph unicode="&#x2da;" horiz-adv-x="1705" d="M619 1222q-8 42 2 91q12 47 38.5 89t64.5 72.5t84 48t95 17.5q96 0 146.5 -65.5t27.5 -161.5q-10 -49 -37.5 -91t-64.5 -73t-83 -48.5t-93 -17.5q-49 0 -87 17.5t-61.5 48.5t-31.5 73zM772 1313q-8 -35 9.5 -57.5t52.5 -22.5q33 0 60.5 22.5t35.5 57.5q8 33 -9.5 55.5 t-50.5 22.5q-35 0 -62.5 -22.5t-35.5 -55.5z" />
<glyph unicode="&#x2dc;" horiz-adv-x="944" d="M422 1401q39 33 80 59q35 23 77 42.5t78 19.5q43 0 83 -14.5t77 -32t67.5 -31.5t53.5 -14q18 0 48 11t58 27q33 18 70 41l8 -170q-39 -35 -78 -59q-35 -23 -74.5 -41t-76.5 -18t-77 15t-77 32.5t-69.5 33t-57.5 15.5q-23 0 -52.5 -13.5t-57.5 -29.5q-35 -20 -70 -43z" />
<glyph unicode="&#x2000;" horiz-adv-x="978" />
<glyph unicode="&#x2001;" horiz-adv-x="1956" />
<glyph unicode="&#x2002;" horiz-adv-x="978" />
<glyph unicode="&#x2003;" horiz-adv-x="1956" />
<glyph unicode="&#x2004;" horiz-adv-x="652" />
<glyph unicode="&#x2005;" horiz-adv-x="489" />
<glyph unicode="&#x2006;" horiz-adv-x="326" />
<glyph unicode="&#x2007;" horiz-adv-x="326" />
<glyph unicode="&#x2008;" horiz-adv-x="244" />
<glyph unicode="&#x2009;" horiz-adv-x="391" />
<glyph unicode="&#x200a;" horiz-adv-x="108" />
<glyph unicode="&#x2010;" horiz-adv-x="901" d="M246 449l49 210h614l-49 -210h-614z" />
<glyph unicode="&#x2011;" horiz-adv-x="901" d="M246 449l49 210h614l-49 -210h-614z" />
<glyph unicode="&#x2012;" horiz-adv-x="901" d="M246 449l49 210h614l-49 -210h-614z" />
<glyph unicode="&#x2013;" horiz-adv-x="1024" d="M104 457l48 205h1024l-48 -205h-1024z" />
<glyph unicode="&#x2014;" horiz-adv-x="2048" d="M104 457l48 205h2048l-48 -205h-2048z" />
<glyph unicode="&#x2018;" horiz-adv-x="430" d="M303 1042q10 141 74.5 257t148.5 225h213q-43 -57 -80.5 -115.5t-66.5 -119t-45.5 -122t-16.5 -125.5h-227z" />
<glyph unicode="&#x2019;" horiz-adv-x="430" d="M274 1042q43 57 81 116t67 119t45 121.5t16 125.5h228q-10 -141 -75 -257t-149 -225h-213z" />
<glyph unicode="&#x201a;" horiz-adv-x="430" d="M12 -178l211 481h228l-226 -481h-213z" />
<glyph unicode="&#x201c;" horiz-adv-x="894" d="M307 1042q10 141 74.5 257t148.5 225h213q-43 -57 -80.5 -115.5t-66.5 -119t-45 -122t-16 -125.5h-228zM696 1042q10 141 75 257t149 225h213q-43 -57 -81 -115.5t-67 -119t-45 -122t-16 -125.5h-228z" />
<glyph unicode="&#x201d;" horiz-adv-x="868" d="M307 1042q43 57 81 116t66.5 119t45 121.5t16.5 125.5h227q-10 -141 -74.5 -257t-148.5 -225h-213zM688 1042q43 57 81 116t66.5 119t45 121.5t16.5 125.5h227q-10 -141 -74.5 -257t-148.5 -225h-213z" />
<glyph unicode="&#x201e;" horiz-adv-x="868" d="M45 -178l211 481h227l-225 -481h-213zM426 -178l211 481h227l-225 -481h-213z" />
<glyph unicode="&#x2026;" horiz-adv-x="1523" d="M137 0l68 295h241l-67 -295h-242zM659 0l68 295h242l-68 -295h-242zM1182 0l67 295h242l-68 -295h-241z" />
<glyph unicode="&#x202f;" horiz-adv-x="391" />
<glyph unicode="&#x2039;" horiz-adv-x="1073" d="M219 418l37 166l502 317l-58 -235l-276 -170l194 -191l-49 -221z" />
<glyph unicode="&#x203a;" horiz-adv-x="1073" d="M145 100l56 240l280 192l-196 170l49 216l354 -320l-39 -166z" />
<glyph unicode="&#x205f;" horiz-adv-x="489" />
<glyph unicode="&#x20ac;" horiz-adv-x="1181" d="M203 418l39 176h112l17 80q4 18 10 40.5t10 30.5h-112l40 179h125q45 127 98.5 214t125 140t165 76.5t216.5 23.5q66 0 130 -6t113 -14q57 -8 111 -19l-57 -190q-55 4 -111 10q-47 4 -101.5 8t-101.5 4q-154 0 -231.5 -62t-116.5 -187h479l-39 -177h-495 q-4 -8 -10.5 -30.5t-10.5 -40.5l-16 -80h495l-38 -176h-480q-8 -59 -1 -102.5t35 -73t78 -44t128 -14.5q41 0 97.5 3t107.5 8q59 4 119 10l-37 -193q-61 -10 -125 -18q-53 -6 -120 -11.5t-126 -5.5q-125 0 -207 32t-129 89.5t-60.5 139t-0.5 180.5h-125z" />
<glyph unicode="&#x2122;" d="M283 1167l32 142h410l-33 -142h-100l-113 -487h-157l112 487h-151zM635 678l145 631h189l20 -357l191 357h188l-145 -631h-148l90 391l-174 -352h-104l-15 352l-90 -391h-147z" />
<glyph unicode="&#x25fc;" horiz-adv-x="1024" d="M0 0v1024h1024v-1024h-1024z" />
</font>
</defs>
</svg>
